<svg xmlns="http://www.w3.org/2000/svg" width="930" height="570" viewBox="0 0 930 570">
<rect width="930" height="570" fill="white"/>
<text x="30" y="35" font-family="sans-serif" font-size="20">Library use versus observed-token gain</text>
<line x1="80.0" y1="80" x2="80.0" y2="480" stroke="#eee"/>
<text x="76.0" y="505" font-family="sans-serif" font-size="13">0</text>
<line x1="340.0" y1="80" x2="340.0" y2="480" stroke="#eee"/>
<text x="336.0" y="505" font-family="sans-serif" font-size="13">1</text>
<line x1="600.0" y1="80" x2="600.0" y2="480" stroke="#eee"/>
<text x="596.0" y="505" font-family="sans-serif" font-size="13">2</text>
<line x1="860.0" y1="80" x2="860.0" y2="480" stroke="#eee"/>
<text x="856.0" y="505" font-family="sans-serif" font-size="13">3</text>
<line x1="80" y1="480.0" x2="860" y2="480.0" stroke="#ddd"/>
<text x="20" y="485.0" font-family="sans-serif" font-size="12">-210%</text>
<line x1="80" y1="380.0" x2="860" y2="380.0" stroke="#ddd"/>
<text x="20" y="385.0" font-family="sans-serif" font-size="12">-138%</text>
<line x1="80" y1="280.0" x2="860" y2="280.0" stroke="#ddd"/>
<text x="20" y="285.0" font-family="sans-serif" font-size="12">-65%</text>
<line x1="80" y1="180.0" x2="860" y2="180.0" stroke="#ddd"/>
<text x="20" y="185.0" font-family="sans-serif" font-size="12">8%</text>
<line x1="80" y1="80.0" x2="860" y2="80.0" stroke="#ddd"/>
<text x="20" y="85.0" font-family="sans-serif" font-size="12">80%</text>
<circle cx="590.0" cy="124.7" r="5" fill="#3366a8" opacity="0.75"><title>P01-T1: score 2, gain 47.6%</title></circle>
<circle cx="855.0" cy="99.9" r="5" fill="#e0803b" opacity="0.75"><title>P01-T2: score 3, gain 65.6%</title></circle>
<circle cx="600.0" cy="227.5" r="5" fill="#3366a8" opacity="0.75"><title>P02-T1: score 2, gain -26.9%</title></circle>
<circle cx="85.0" cy="479.1" r="5" fill="#50966a" opacity="0.75"><title>P02-T3: score 0, gain -209.4%</title></circle>
<circle cx="90.0" cy="299.3" r="5" fill="#50966a" opacity="0.75"><title>P03-T3: score 0, gain -79.0%</title></circle>
<circle cx="590.0" cy="204.1" r="5" fill="#3366a8" opacity="0.75"><title>P04-T1: score 2, gain -10.0%</title></circle>
<circle cx="75.0" cy="224.7" r="5" fill="#50966a" opacity="0.75"><title>P05-T3: score 0, gain -24.9%</title></circle>
<circle cx="80.0" cy="130.6" r="5" fill="#50966a" opacity="0.75"><title>P06-T3: score 0, gain 43.3%</title></circle>
<circle cx="85.0" cy="121.7" r="5" fill="#50966a" opacity="0.75"><title>P08-T3: score 0, gain 49.8%</title></circle>
<circle cx="90.0" cy="174.6" r="5" fill="#50966a" opacity="0.75"><title>P09-T3: score 0, gain 11.4%</title></circle>
<circle cx="70.0" cy="203.7" r="5" fill="#50966a" opacity="0.75"><title>P11-T3: score 0, gain -9.7%</title></circle>
<circle cx="855.0" cy="217.1" r="5" fill="#3366a8" opacity="0.75"><title>P12-T1: score 3, gain -19.4%</title></circle>
<circle cx="80.0" cy="141.9" r="5" fill="#50966a" opacity="0.75"><title>P13-T3: score 0, gain 35.1%</title></circle>
<circle cx="605.0" cy="175.0" r="5" fill="#3366a8" opacity="0.75"><title>P14-T1: score 2, gain 11.1%</title></circle>
<circle cx="610.0" cy="114.3" r="5" fill="#3366a8" opacity="0.75"><title>P15-T1: score 2, gain 55.2%</title></circle>
<circle cx="850.0" cy="82.5" r="5" fill="#e0803b" opacity="0.75"><title>P15-T2: score 3, gain 78.2%</title></circle>
<circle cx="855.0" cy="166.9" r="5" fill="#50966a" opacity="0.75"><title>P15-T3: score 3, gain 17.0%</title></circle>
<circle cx="80.0" cy="247.0" r="5" fill="#3366a8" opacity="0.75"><title>P17-T1: score 0, gain -41.0%</title></circle>
<circle cx="85.0" cy="186.7" r="5" fill="#50966a" opacity="0.75"><title>P17-T3: score 0, gain 2.7%</title></circle>
<circle cx="90.0" cy="114.1" r="5" fill="#50966a" opacity="0.75"><title>P19-T3: score 0, gain 55.3%</title></circle>
<circle cx="70.0" cy="193.8" r="5" fill="#50966a" opacity="0.75"><title>P20-T3: score 0, gain -2.5%</title></circle>
<circle cx="855.0" cy="151.6" r="5" fill="#3366a8" opacity="0.75"><title>P23-T1: score 3, gain 28.1%</title></circle>
<circle cx="80.0" cy="173.9" r="5" fill="#50966a" opacity="0.75"><title>P24-T3: score 0, gain 11.9%</title></circle>
<circle cx="85.0" cy="175.8" r="5" fill="#50966a" opacity="0.75"><title>P25-T3: score 0, gain 10.5%</title></circle>
<circle cx="610.0" cy="98.0" r="5" fill="#3366a8" opacity="0.75"><title>P26-T1: score 2, gain 67.0%</title></circle>
<circle cx="70.0" cy="203.4" r="5" fill="#50966a" opacity="0.75"><title>P27-T3: score 0, gain -9.5%</title></circle>
<circle cx="335.0" cy="95.0" r="5" fill="#3366a8" opacity="0.75"><title>P28-T1: score 1, gain 69.1%</title></circle>
<circle cx="80.0" cy="138.6" r="5" fill="#50966a" opacity="0.75"><title>P28-T3: score 0, gain 37.5%</title></circle>
<circle cx="345.0" cy="104.8" r="5" fill="#3366a8" opacity="0.75"><title>P29-T1: score 1, gain 62.0%</title></circle>
<circle cx="870.0" cy="106.3" r="5" fill="#e0803b" opacity="0.75"><title>P29-T2: score 3, gain 61.0%</title></circle>
<circle cx="70.0" cy="259.8" r="5" fill="#50966a" opacity="0.75"><title>P32-T3: score 0, gain -50.4%</title></circle>
<circle cx="335.0" cy="134.3" r="5" fill="#3366a8" opacity="0.75"><title>P33-T1: score 1, gain 40.6%</title></circle>
<circle cx="80.0" cy="169.0" r="5" fill="#50966a" opacity="0.75"><title>P34-T3: score 0, gain 15.5%</title></circle>
<circle cx="345.0" cy="191.8" r="5" fill="#50966a" opacity="0.75"><title>P35-T3: score 1, gain -1.1%</title></circle>
<circle cx="90.0" cy="218.0" r="5" fill="#50966a" opacity="0.75"><title>P36-T3: score 0, gain -20.1%</title></circle>
<circle cx="70.0" cy="112.5" r="5" fill="#50966a" opacity="0.75"><title>P37-T3: score 0, gain 56.4%</title></circle>
<circle cx="75.0" cy="149.1" r="5" fill="#50966a" opacity="0.75"><title>P39-T3: score 0, gain 29.9%</title></circle>
<circle cx="340.0" cy="188.4" r="5" fill="#50966a" opacity="0.75"><title>P40-T3: score 1, gain 1.4%</title></circle>
<text x="340" y="535" font-family="sans-serif" font-size="14">Median candidate-aware score (0–3)</text>
<text x="700" y="52" font-family="sans-serif" font-size="12" fill="#3366a8">T1</text>
<text x="750" y="52" font-family="sans-serif" font-size="12" fill="#e0803b">T2</text>
<text x="800" y="52" font-family="sans-serif" font-size="12" fill="#50966a">T3</text>
</svg>
